<svg width="1116" height="1117" viewBox="0 0 1116 1117" fill="none" xmlns="http://www.w3.org/2000/svg">
<path d="M825.782 641.844C823.608 640.799 742.248 600.7 727.791 595.492C721.888 593.37 715.566 591.299 708.841 591.299C697.855 591.299 688.626 596.779 681.437 607.543C673.31 619.634 648.707 648.419 641.105 657.017C640.112 658.153 638.757 659.509 637.946 659.509C637.217 659.509 624.626 654.319 620.814 652.662C533.538 614.717 467.292 523.467 458.208 508.079C456.911 505.867 456.856 504.862 456.845 504.862C457.164 503.691 460.099 500.746 461.614 499.227C466.045 494.839 470.846 489.054 475.491 483.458C477.691 480.807 479.894 478.152 482.057 475.65C488.796 467.802 491.797 461.709 495.275 454.652L497.098 450.985C505.591 434.096 498.337 419.844 495.992 415.241C494.068 411.39 459.715 328.405 456.063 319.687C447.28 298.649 435.674 288.854 419.546 288.854C418.05 288.854 419.546 288.854 413.271 289.118C405.629 289.441 364.014 294.924 345.615 306.533C326.103 318.846 293.094 358.093 293.094 427.115C293.094 489.235 332.48 547.889 349.39 570.196C349.811 570.758 350.583 571.901 351.702 573.54C416.463 668.202 497.195 738.355 579.037 771.078C657.827 802.579 695.137 806.22 716.348 806.22C716.352 806.22 716.352 806.22 716.352 806.22C725.265 806.22 732.4 805.52 738.694 804.9L742.687 804.519C769.905 802.104 829.72 771.082 843.326 733.238C854.044 703.431 856.87 670.864 849.739 659.045C844.855 651.008 836.438 646.964 825.782 641.844Z" fill="#04A784"/>
<path d="M567.906 0C265.658 0 19.7611 244.268 19.7611 544.512C19.7611 641.622 45.7262 736.68 94.9136 819.874L0.767315 1097.84C-0.9864 1103.02 0.318016 1108.75 4.14793 1112.65C6.91257 1115.48 10.6628 1117 14.4927 1117C15.9601 1117 17.4385 1116.78 18.8806 1116.32L308.461 1024.22C387.704 1066.59 477.267 1088.96 567.91 1088.96C870.128 1088.97 1116 844.724 1116 544.512C1116 244.268 870.128 0 567.906 0ZM567.906 975.54C482.615 975.54 400.006 950.89 328.995 904.251C326.607 902.681 323.835 901.876 321.045 901.876C319.57 901.876 318.092 902.101 316.654 902.558L171.592 948.71L218.42 810.431C219.935 805.955 219.177 801.02 216.387 797.204C162.312 723.25 133.727 635.874 133.727 544.512C133.727 306.812 328.498 113.426 567.902 113.426C807.277 113.426 1002.03 306.812 1002.03 544.512C1002.03 782.183 807.284 975.54 567.906 975.54Z" fill="#04A784"/>
</svg>
